<svg version="1.1" xmlns="http://www.w3.org/2000/svg" viewBox="-287.2 -1556.95 3996.704190552829 2355.9"><desc>Created with Snap</desc><defs></defs><g><g transform="matrix(21.8566,0,0,21.8566,1327.7399,-1469.9986)"><ellipse cx="55.785" cy="40.521" rx="2.53" ry="3.002" fill="#f8545c" style=""></ellipse><path d="M44.047,37.52c-1.399,0-2.532,1.344-2.532,3.003c0,1.657,1.133,3.001,2.532,3.001c1.395,0,2.531-1.344,2.531-3.001  C46.578,38.863,45.442,37.52,44.047,37.52z" fill="#f8545c" style=""></path><path d="M76.784,29.856c0,0,0.112-1.125,0.112-1.13c1.323-6.251-5.399-9.278-9.042-5.952c0.452-0.762-0.531-5.451-0.76-5.941  c-1.031-2.191-2.656-3.242-4.857-3.711c-2.029-0.43-4.522-0.207-6.149,1.162c-1.082-2.481-3.479-4.207-6.262-4.207  c-2.744,0-5.11,1.675-6.213,4.099c-1.627-1.272-4.043-1.473-6.016-1.054c-2.2,0.469-3.827,1.52-4.857,3.711  c-0.229,0.49-1.212,5.179-0.76,5.941c-3.644-3.326-10.367-0.299-9.042,5.952c0,0.004,0.109,1.13,0.109,1.13  C16.549,30.194-0.114,44.592,6.4,52.735c3.905,4.881,11.941,1.94,16.286-4.266c-1.715,2.449-0.115,11.685,0.355,14.481  c0.891,5.319,2.902,10.21,5.958,14.506c6.363,8.948,15.005,13.868,25.631,11.85c17.023-3.232,24.843-24.217,22.518-40.837  c4.343,6.206,12.384,9.147,16.286,4.266C99.948,44.592,83.283,30.194,76.784,29.856z M40.536,51.205  c-4.702,0-8.515-4.518-8.515-10.093c0-5.575,3.813-10.094,8.515-10.094c4.702,0,8.515,4.519,8.515,10.094  C49.051,46.687,45.238,51.205,40.536,51.205z M59.296,51.205c-4.703,0-8.514-4.518-8.514-10.093c0-5.575,3.811-10.094,8.514-10.094  c4.702,0,8.516,4.519,8.516,10.094C67.812,46.687,63.998,51.205,59.296,51.205z" fill="#f8545c" style=""></path><desc>Created with Snap</desc><defs></defs></g><g><g transform="matrix(1,0,0,-1,0,0)"><path d="M628 -1Q621 6 618 9Q615 13 614 18Q598 25 592 39Q587 53 576 64L576 77Q571 82 566 87Q562 92 557 96Q561 108 555 117Q549 127 547 138Q542 142 538 146Q535 151 533 157Q526 158 517 157Q508 157 499 156Q490 155 481 155Q473 156 468 161Q460 162 451 163Q443 164 435 166Q413 161 394 163Q375 165 361 159Q357 161 352 161Q347 162 344 166Q334 160 328 163Q323 166 313 166Q309 166 305 164Q301 163 297 161Q289 164 280 166Q272 168 263 168Q258 168 254 166Q251 164 247 164Q242 164 237 165Q233 167 228 164Q217 166 212 162Q207 159 202 164Q195 159 187 158Q179 157 173 153Q169 144 168 144Q167 144 166 142Q161 137 160 130Q160 124 152 122Q150 111 145 103Q140 95 135 86Q136 82 136 79Q137 76 137 72Q132 62 134 60Q136 59 135 57Q128 52 128 48Q128 45 123 47Q123 27 112 18Q101 10 90 -3Q82 -3 75 -5Q69 -6 61 -8Q55 -4 47 -2Q40 0 35 5Q29 20 25 23Q22 26 20 34Q25 47 32 55Q39 64 40 79Q42 83 45 86Q49 89 51 94Q53 98 53 102Q54 106 56 109Q63 117 64 121Q65 125 71 127Q69 138 76 141Q83 145 83 153Q83 163 79 171Q75 180 75 190Q75 197 78 200Q82 204 86 207Q91 210 95 213Q99 217 101 222L111 222Q119 232 124 244Q129 256 135 267Q137 271 136 276Q135 282 137 285Q144 293 143 296Q142 300 149 302Q148 311 150 314Q153 317 154 324Q157 328 160 330Q164 333 168 335L168 348Q172 350 174 353Q176 357 180 358Q181 362 180 364Q180 367 185 367Q187 371 186 374Q185 378 187 382Q189 387 193 390Q197 394 197 399Q195 400 195 402Q196 404 197 407Q199 410 199 413Q200 416 199 421Q203 424 204 427Q206 431 209 434Q207 444 209 451Q211 458 213 467Q220 470 223 475Q222 482 224 488Q226 495 228 501Q231 507 232 512Q233 518 230 525Q233 533 238 536Q244 540 242 551Q249 557 256 566Q264 576 261 586Q269 597 273 609Q277 622 275 636Q280 646 285 659Q291 672 290 683Q296 685 296 690Q297 696 299 701Q301 703 303 705Q306 708 306 712Q312 717 314 723Q317 730 321 735Q324 741 328 746Q332 751 335 757L349 757Q351 762 355 763Q360 765 365 765Q371 765 377 764Q383 764 387 766Q390 762 393 760Q397 758 400 756Q403 754 405 751Q407 748 406 742Q410 741 412 739Q414 737 418 737Q416 732 419 728Q423 725 423 720Q423 718 420 715Q418 712 418 707Q418 699 421 693Q424 687 428 681Q427 673 425 670Q423 668 428 660Q427 653 428 652Q429 651 430 650Q431 649 431 646Q432 644 432 638Q439 628 438 623Q438 619 445 618Q445 608 449 601Q454 594 461 588Q461 580 464 575Q467 570 466 562Q468 554 476 549Q474 542 475 535Q477 528 480 521Q483 515 486 508Q490 501 492 495Q498 470 505 451Q512 433 528 413Q527 411 528 406Q529 401 526 402Q530 397 537 385Q544 374 542 367Q549 355 549 346Q550 338 552 330Q560 322 563 311Q566 300 578 296Q576 282 584 267Q593 253 595 239Q603 231 607 220Q612 210 619 200Q618 195 618 187Q618 180 626 181Q625 175 627 171Q629 167 631 164Q634 161 636 158Q639 155 640 151Q648 143 652 140L652 122Q657 117 662 111Q668 105 676 103Q671 87 678 77Q685 67 685 59Q685 55 684 52Q683 50 683 47Q683 43 684 40Q685 38 685 35Q685 24 679 17Q673 10 664 6Q656 2 646 0Q636 -1 628 -1ZM430 397Q430 411 423 422Q417 434 418 447Q413 448 413 452Q413 457 409 458Q413 465 407 473Q402 482 404 493Q401 495 399 499Q397 503 395 506Q392 526 380 541Q369 557 364 575Q360 576 357 578Q355 580 352 582Q350 578 347 577Q344 577 342 575Q337 570 337 562Q338 554 330 547Q330 544 330 540Q330 536 333 534Q325 532 325 527Q325 522 323 517Q317 505 318 500Q319 496 318 491L309 475Q305 473 303 469Q301 466 299 462Q294 454 291 448Q288 443 290 432Q285 422 283 420Q281 418 280 415Q279 411 279 407Q280 403 280 400Q272 390 269 378Q266 366 266 354Q263 349 261 346Q260 344 259 342Q259 341 258 339Q258 337 256 332Q247 323 238 308Q230 293 230 285Q227 284 225 282Q223 280 221 278Q222 269 219 262Q217 256 216 248Q221 245 228 244Q235 243 240 248Q241 246 243 245Q246 245 249 245Q252 245 254 244Q257 244 256 241Q276 242 297 243Q318 244 337 237Q356 240 376 241Q397 242 416 237Q432 243 448 242Q464 241 480 244Q478 249 484 250Q490 251 490 261Q490 269 484 277Q479 285 476 293Q474 298 473 303Q473 308 471 313Q469 316 466 318Q463 320 461 324Q454 343 447 361Q441 380 430 397ZM1128 75Q1127 73 1124 67Q1121 62 1117 56Q1113 50 1110 45Q1107 41 1106 40Q1101 36 1093 34Q1086 33 1080 29Q1073 31 1068 29Q1064 27 1059 27Q1056 27 1053 25Q1051 24 1048 23Q1043 21 1036 22Q1029 23 1026 16Q1020 19 1017 19Q1015 19 1009 16Q996 21 991 16Q988 19 982 17Q976 16 974 12Q970 15 966 17Q962 19 959 23Q945 17 925 17Q906 18 890 16Q876 15 862 12Q849 9 836 12Q831 11 823 5Q813 8 805 13Q797 18 792 27Q796 37 791 44Q786 51 788 64Q793 70 800 72Q807 75 810 83Q817 85 827 85Q837 85 842 90Q852 88 856 87Q861 86 864 87Q867 88 869 91Q871 94 877 101Q875 106 872 108Q869 111 866 114Q868 119 865 120Q862 122 862 125Q862 131 866 130Q870 130 870 141Q870 144 869 147Q869 151 866 153Q868 158 870 163Q872 169 875 174Q871 177 870 183Q869 189 869 196Q869 203 868 209Q868 215 864 220Q864 225 868 233Q862 254 862 280Q863 307 855 326Q865 339 861 352Q857 365 857 379Q857 389 861 397Q866 406 857 415Q860 421 861 430Q862 440 862 449Q862 459 859 468Q857 477 853 482Q856 483 856 486Q857 489 859 491Q857 493 856 496Q856 499 853 499Q858 511 853 515Q849 520 857 525Q857 531 854 534Q852 538 853 545Q851 547 854 552Q858 558 858 563Q858 574 855 584Q853 594 853 605Q853 609 854 612Q855 616 855 620Q855 625 851 631Q848 638 844 642Q829 642 818 634Q806 638 798 632Q791 627 782 627Q777 627 773 630Q769 634 764 636Q765 641 763 643Q762 646 762 651Q754 660 752 662Q750 664 747 668Q750 676 752 683Q755 691 760 699Q772 699 780 705Q789 711 803 709Q807 711 810 713Q813 715 816 718Q823 716 831 717Q839 718 844 725Q849 724 854 723Q860 723 865 723Q881 723 883 727Q886 732 896 740Q906 739 914 735Q923 732 931 727Q942 728 958 729Q975 731 983 742Q991 742 999 738Q1007 735 1015 735Q1020 735 1022 732Q1024 730 1026 727Q1035 730 1043 724Q1052 718 1063 718Q1067 706 1064 693Q1062 680 1065 668Q1057 666 1049 662Q1041 658 1035 651Q1029 651 1024 650Q1019 649 1015 644Q998 649 980 649Q963 650 946 644Q945 634 943 624Q942 615 942 605Q940 594 941 591Q942 589 942 586Q942 583 941 580Q940 578 940 575Q940 570 942 566Q944 563 944 558Q944 551 941 544Q939 538 939 531Q939 525 940 518Q942 512 942 506Q942 495 940 486Q939 478 944 467Q939 464 940 458Q942 452 937 449Q939 444 940 438Q941 433 946 430Q943 420 943 409Q944 399 944 389Q944 385 946 382Q948 380 950 378Q948 374 947 370Q946 367 944 363Q946 357 944 350Q943 344 948 339Q944 336 943 331Q942 326 940 322Q943 317 944 310Q945 303 940 298Q945 288 944 284Q944 281 944 278Q944 273 947 272Q950 272 952 267Q948 262 950 256Q953 251 948 248Q952 244 953 239Q954 234 954 228Q954 223 953 217Q953 211 955 207Q948 195 951 192Q954 190 957 187Q954 169 968 157Q963 153 963 144Q964 136 961 131Q964 123 966 116Q969 109 970 101Q974 98 978 99Q982 101 987 101Q990 101 992 100Q995 99 998 99Q1008 103 1010 102Q1013 101 1015 101Q1032 108 1042 108Q1052 109 1054 120Q1062 118 1072 119Q1082 120 1089 114Q1094 113 1097 115Q1101 118 1106 118Q1107 113 1110 109Q1113 105 1116 101Q1119 97 1120 92Q1121 88 1119 81Q1121 78 1122 75Q1123 73 1128 75Z" fill="#741239" style=""></path></g></g></g></svg>